<?xml version="1.0" encoding="UTF-8"?>
<svg width="344px" height="78px" viewBox="0 0 344 78" version="1.1" xmlns="http://www.w3.org/2000/svg" xmlns:xlink="http://www.w3.org/1999/xlink">
    <!-- Generator: Sketch 43.2 (39069) - http://www.bohemiancoding.com/sketch -->
    <title>ApplianceLogo</title>
    <desc>Created with Sketch.</desc>
    <defs>
        <path d="M5.952,0.8 C5.049,1.162 4.285,1.638 3.665,2.239 C3.047,2.833 2.578,3.516 2.253,4.287 C1.926,5.059 1.765,5.853 1.765,6.668 C1.765,7.686 1.914,8.543 2.207,9.238 C2.501,9.934 2.889,10.514 3.373,10.979 C3.855,11.439 4.407,11.815 5.025,12.104 C5.643,12.391 6.272,12.642 6.907,12.845 C7.549,13.053 8.177,13.241 8.793,13.418 C9.412,13.591 9.962,13.805 10.448,14.059 C10.931,14.312 11.319,14.62 11.613,14.996 C11.907,15.37 12.053,15.846 12.053,16.433 C12.053,17.482 11.728,18.289 11.081,18.85 C10.431,19.411 9.515,19.69 8.331,19.69 C7.559,19.69 6.896,19.583 6.345,19.372 C5.796,19.16 5.313,18.93 4.902,18.673 C4.489,18.415 4.134,18.177 3.836,17.97 C3.537,17.759 3.258,17.655 3.002,17.655 C2.818,17.655 2.642,17.702 2.476,17.801 C2.311,17.897 2.178,18.016 2.075,18.162 L0.857,20.151 C1.287,20.598 1.782,20.997 2.338,21.358 C2.895,21.719 3.488,22.031 4.122,22.287 C4.754,22.545 5.417,22.742 6.106,22.875 C6.795,23.018 7.495,23.087 8.208,23.087 C9.441,23.087 10.538,22.898 11.494,22.526 C12.455,22.149 13.265,21.635 13.93,20.981 C14.592,20.328 15.099,19.561 15.444,18.681 C15.789,17.801 15.962,16.856 15.962,15.846 C15.962,14.92 15.812,14.128 15.52,13.48 C15.226,12.83 14.838,12.284 14.352,11.835 C13.87,11.386 13.32,11.016 12.7,10.721 C12.082,10.429 11.449,10.172 10.802,9.949 C10.153,9.729 9.52,9.519 8.902,9.323 C8.285,9.127 7.733,8.908 7.249,8.662 C6.765,8.412 6.377,8.117 6.084,7.763 C5.789,7.413 5.643,6.975 5.643,6.452 C5.643,6.039 5.715,5.661 5.86,5.316 C6.004,4.971 6.221,4.674 6.516,4.43 C6.81,4.182 7.173,3.987 7.605,3.85 C8.037,3.707 8.542,3.64 9.118,3.64 C9.756,3.64 10.309,3.719 10.778,3.878 C11.246,4.038 11.657,4.218 12.006,4.412 C12.357,4.608 12.658,4.787 12.907,4.944 C13.161,5.103 13.395,5.184 13.613,5.184 C13.818,5.184 13.991,5.137 14.131,5.039 C14.269,4.939 14.399,4.781 14.525,4.568 L15.559,2.607 C14.777,1.865 13.83,1.289 12.716,0.878 C11.603,0.466 10.389,0.264 9.073,0.264 C7.898,0.264 6.859,0.444 5.952,0.8 Z M105.503,0.509 L105.503,22.837 L119.589,22.837 L119.589,19.521 L109.674,19.521 L109.674,13.202 L117.49,13.202 L117.49,10.003 L109.674,10.003 L109.674,3.81 L119.589,3.81 L119.589,0.509 L105.503,0.509 Z M76.121,0.509 L76.121,3.917 L82.855,3.917 L82.855,22.837 L87.008,22.837 L87.008,3.917 L93.745,3.917 L93.745,0.509 L76.121,0.509 Z M60.16,22.837 L64.33,22.837 L64.33,0.509 L60.16,0.509 L60.16,22.837 Z M42.485,0.509 L42.485,13.883 C42.485,14.735 42.368,15.511 42.138,16.203 C41.907,16.891 41.575,17.478 41.14,17.958 C40.708,18.447 40.175,18.822 39.543,19.088 C38.91,19.357 38.192,19.492 37.387,19.492 C36.586,19.492 35.868,19.357 35.235,19.088 C34.601,18.822 34.065,18.442 33.629,17.954 C33.191,17.463 32.854,16.875 32.624,16.183 C32.393,15.497 32.276,14.72 32.276,13.863 L32.276,0.509 L28.122,0.509 L28.122,13.883 C28.122,15.212 28.335,16.441 28.764,17.567 C29.19,18.696 29.803,19.668 30.601,20.486 C31.399,21.303 32.369,21.941 33.512,22.4 C34.654,22.857 35.947,23.087 37.387,23.087 C38.82,23.087 40.107,22.857 41.25,22.4 C42.391,21.941 43.362,21.303 44.16,20.486 C44.959,19.668 45.572,18.696 46,17.567 C46.425,16.441 46.639,15.212 46.639,13.883 L46.639,0.509 L42.485,0.509 Z" id="path-1"></path>
        <path d="M12.42,2.504 C9.936,3.526 7.804,4.95 6.023,6.791 C4.247,8.623 2.866,10.805 1.882,13.331 C0.901,15.86 0.409,18.635 0.409,21.658 C0.409,24.624 0.863,27.374 1.771,29.902 C2.679,32.434 3.98,34.619 5.677,36.467 C7.371,38.311 9.438,39.756 11.875,40.8 C14.313,41.845 17.072,42.372 20.149,42.372 C23.502,42.372 26.406,41.83 28.863,40.746 C31.32,39.663 33.363,38.053 34.992,35.922 L31.268,32.003 C31.064,31.8 30.851,31.653 30.628,31.573 C30.405,31.489 30.182,31.45 29.961,31.45 C29.683,31.45 29.416,31.508 29.155,31.627 C28.896,31.75 28.656,31.899 28.431,32.088 C27.875,32.587 27.331,32.998 26.791,33.321 C26.254,33.648 25.68,33.905 25.068,34.101 C24.456,34.297 23.798,34.434 23.095,34.515 C22.39,34.604 21.612,34.642 20.759,34.642 C19.277,34.642 17.886,34.354 16.589,33.782 C15.291,33.206 14.156,32.368 13.184,31.266 C12.213,30.163 11.442,28.808 10.877,27.198 C10.31,25.584 10.027,23.736 10.027,21.658 C10.027,19.602 10.286,17.771 10.792,16.166 C11.304,14.563 12.024,13.211 12.961,12.112 C13.899,11.009 15.01,10.171 16.298,9.599 C17.585,9.023 19.006,8.734 20.563,8.734 C21.547,8.734 22.404,8.811 23.137,8.957 C23.867,9.107 24.507,9.288 25.054,9.503 C25.601,9.714 26.073,9.945 26.473,10.195 C26.872,10.448 27.235,10.679 27.57,10.89 C27.903,11.105 28.219,11.286 28.515,11.428 C28.811,11.577 29.126,11.654 29.462,11.654 C29.961,11.654 30.351,11.547 30.628,11.335 C30.905,11.12 31.147,10.886 31.352,10.624 L34.519,6.372 C33.759,5.592 32.889,4.866 31.907,4.202 C30.924,3.533 29.85,2.965 28.68,2.492 C27.514,2.02 26.258,1.647 24.918,1.378 C23.571,1.109 22.141,0.974 20.62,0.974 C17.636,0.974 14.903,1.485 12.42,2.504 Z M114.029,1.42 C113.619,1.42 113.264,1.428 112.959,1.451 C112.651,1.466 112.381,1.521 112.138,1.612 C111.897,1.708 111.679,1.851 111.486,2.047 C111.292,2.239 111.101,2.511 110.915,2.868 L100.52,23.329 C100.128,24.032 99.763,24.774 99.419,25.554 C99.076,26.333 98.748,27.129 98.434,27.943 C98.118,27.147 97.788,26.369 97.444,25.612 C97.103,24.847 96.746,24.117 96.376,23.41 L85.951,2.868 C85.767,2.511 85.574,2.239 85.381,2.047 C85.187,1.851 84.969,1.708 84.728,1.612 C84.488,1.521 84.213,1.466 83.909,1.451 C83.602,1.428 83.244,1.42 82.836,1.42 L75.664,1.42 L75.664,41.926 L83.95,41.926 L83.95,18.627 C83.95,18.09 83.928,17.502 83.894,16.865 C83.858,16.224 83.809,15.569 83.754,14.903 L94.514,35.784 C94.846,36.432 95.295,36.924 95.862,37.259 C96.426,37.593 97.07,37.758 97.793,37.758 L99.073,37.758 C99.793,37.758 100.439,37.593 101.005,37.259 C101.571,36.924 102.02,36.432 102.352,35.784 L113.111,14.96 C113.038,15.608 112.987,16.245 112.959,16.876 C112.93,17.506 112.914,18.09 112.914,18.627 L112.914,41.926 L121.201,41.926 L121.201,1.42 L114.029,1.42 Z M39.105,1.42 L52.284,1.42 C55.214,1.42 57.71,1.719 59.777,2.323 C61.844,2.925 63.531,3.763 64.836,4.839 C66.142,5.919 67.091,7.187 67.687,8.654 C68.279,10.117 68.576,11.708 68.576,13.428 C68.576,14.744 68.399,15.987 68.049,17.153 C67.695,18.324 67.177,19.404 66.492,20.394 C65.804,21.386 64.957,22.273 63.946,23.049 C62.939,23.829 61.775,24.467 60.457,24.974 C61.068,25.284 61.644,25.681 62.181,26.153 C62.721,26.625 63.199,27.187 63.626,27.831 L72.244,41.926 L63.738,41.926 C62.163,41.926 61.031,41.334 60.348,40.151 L53.62,28.389 C53.304,27.889 52.951,27.524 52.563,27.29 C52.175,27.06 51.617,26.945 50.896,26.945 L48.504,26.945 L48.504,41.926 L39.105,41.926 L39.105,1.42 Z M48.504,8.458 L48.504,20.464 L52.284,20.464 C53.564,20.464 54.653,20.302 55.549,19.976 C56.45,19.654 57.188,19.203 57.76,18.627 C58.335,18.051 58.752,17.383 59.013,16.612 C59.272,15.843 59.403,15.016 59.403,14.124 C59.403,12.349 58.823,10.959 57.664,9.96 C56.506,8.957 54.712,8.458 52.284,8.458 L48.504,8.458 Z" id="path-3"></path>
    </defs>
    <g id="Page-1" stroke="none" stroke-width="1" fill="none" fill-rule="evenodd">
        <g id="ApplianceLogo">
            <g id="Page-1">
                <g id="Group-5" transform="translate(0.000000, 0.040000)">
                    <path d="M187.7124,0.0562 L3.5264,0.0562 C1.8224,0.0562 0.4384,1.4412 0.4384,3.1502 L0.4384,74.1882 C0.4384,75.8932 1.8224,77.2802 3.5264,77.2802 L184.0254,77.2802 C175.8404,67.3392 170.9224,54.5972 170.9224,40.7062 C170.9224,24.8442 177.3384,10.4752 187.7124,0.0562" id="Fill-1" fill="#EA6657"></path>
                    <path d="M39.5249,31.5674 C39.3989,31.7814 39.2699,31.9384 39.1309,32.0384 C38.9909,32.1364 38.8179,32.1844 38.6129,32.1844 C38.3959,32.1844 38.1609,32.1034 37.9079,31.9444 C37.6579,31.7874 37.3569,31.6084 37.0069,31.4124 C36.6569,31.2174 36.2459,31.0384 35.7779,30.8784 C35.3089,30.7184 34.7559,30.6394 34.1179,30.6394 C33.5419,30.6394 33.0369,30.7074 32.6049,30.8494 C32.1719,30.9874 31.8099,31.1814 31.5159,31.4294 C31.2219,31.6734 31.0039,31.9704 30.8599,32.3154 C30.7139,32.6614 30.6439,33.0394 30.6439,33.4524 C30.6439,33.9754 30.7899,34.4134 31.0839,34.7624 C31.3779,35.1164 31.7649,35.4124 32.2499,35.6624 C32.7329,35.9074 33.2849,36.1274 33.9029,36.3224 C34.5199,36.5184 35.1529,36.7294 35.8029,36.9494 C36.4499,37.1714 37.0819,37.4284 37.6999,37.7204 C38.3209,38.0164 38.8699,38.3854 39.3519,38.8354 C39.8379,39.2844 40.2259,39.8304 40.5199,40.4794 C40.8119,41.1284 40.9619,41.9204 40.9619,42.8454 C40.9619,43.8554 40.7889,44.8004 40.4429,45.6804 C40.0989,46.5604 39.5919,47.3284 38.9299,47.9814 C38.2649,48.6344 37.4549,49.1494 36.4939,49.5254 C35.5379,49.8984 34.4409,50.0874 33.2079,50.0874 C32.4949,50.0874 31.7959,50.0174 31.1069,49.8754 C30.4169,49.7414 29.7539,49.5454 29.1219,49.2874 C28.4879,49.0304 27.8949,48.7184 27.3379,48.3584 C26.7829,47.9974 26.2869,47.5974 25.8569,47.1514 L27.0749,45.1624 C27.1789,45.0154 27.3109,44.8964 27.4759,44.8004 C27.6419,44.7014 27.8179,44.6544 28.0029,44.6544 C28.2579,44.6544 28.5369,44.7584 28.8359,44.9694 C29.1339,45.1764 29.4889,45.4154 29.9019,45.6724 C30.3129,45.9294 30.7959,46.1604 31.3449,46.3724 C31.8959,46.5834 32.5589,46.6904 33.3309,46.6904 C34.5159,46.6904 35.4299,46.4104 36.0809,45.8494 C36.7289,45.2894 37.0529,44.4814 37.0529,43.4334 C37.0529,42.8454 36.9069,42.3694 36.6129,41.9964 C36.3189,41.6204 35.9309,41.3124 35.4469,41.0594 C34.9619,40.8054 34.4119,40.5904 33.7939,40.4184 C33.1769,40.2414 32.5489,40.0524 31.9069,39.8444 C31.2719,39.6414 30.6439,39.3914 30.0249,39.1034 C29.4069,38.8154 28.8559,38.4394 28.3729,37.9784 C27.8889,37.5134 27.5009,36.9334 27.2079,36.2384 C26.9139,35.5434 26.7659,34.6864 26.7659,33.6684 C26.7659,32.8524 26.9269,32.0594 27.2539,31.2874 C27.5779,30.5154 28.0469,29.8334 28.6649,29.2384 C29.2859,28.6384 30.0479,28.1624 30.9529,27.8004 C31.8589,27.4444 32.8989,27.2634 34.0719,27.2634 C35.3899,27.2634 36.6039,27.4664 37.7159,27.8784 C38.8299,28.2894 39.7769,28.8654 40.5589,29.6064 L39.5249,31.5674 Z M62.3879,46.4914 C63.1919,46.4914 63.9109,46.3564 64.5429,46.0884 C65.1749,45.8224 65.7089,45.4464 66.1409,44.9584 C66.5749,44.4784 66.9069,43.8904 67.1379,43.2034 C67.3679,42.5104 67.4849,41.7354 67.4849,40.8824 L67.4849,27.5084 L71.6399,27.5084 L71.6399,40.8824 C71.6399,42.2124 71.4249,43.4404 70.9999,44.5664 C70.5719,45.6964 69.9589,46.6684 69.1599,47.4864 C68.3629,48.3034 67.3909,48.9414 66.2499,49.3994 C65.1079,49.8564 63.8199,50.0874 62.3879,50.0874 C60.9469,50.0874 59.6539,49.8564 58.5119,49.3994 C57.3689,48.9414 56.3989,48.3034 55.6019,47.4864 C54.8029,46.6684 54.1899,45.6964 53.7639,44.5664 C53.3349,43.4404 53.1219,42.2124 53.1219,40.8824 L53.1219,27.5084 L57.2759,27.5084 L57.2759,40.8634 C57.2759,41.7194 57.3939,42.4964 57.6239,43.1834 C57.8549,43.8754 58.1909,44.4634 58.6289,44.9544 C59.0649,45.4424 59.6009,45.8224 60.2339,46.0884 C60.8679,46.3564 61.5869,46.4914 62.3879,46.4914 L62.3879,46.4914 Z M85.1599,49.8374 L89.3299,49.8374 L89.3299,27.5094 L85.1599,27.5094 L85.1599,49.8374 Z M118.7439,30.9174 L112.0079,30.9174 L112.0079,49.8374 L107.8559,49.8374 L107.8559,30.9174 L101.1209,30.9174 L101.1209,27.5084 L118.7439,27.5084 L118.7439,30.9174 Z M134.6749,30.8094 L134.6749,37.0034 L142.4899,37.0034 L142.4899,40.2024 L134.6749,40.2024 L134.6749,46.5214 L144.5889,46.5214 L144.5889,49.8374 L130.5029,49.8374 L130.5029,27.5084 L144.5889,27.5084 L144.5889,30.8094 L134.6749,30.8094 Z" id="Fill-3" fill="#FEFEFE"></path>
                </g>
                <g id="Group-9" transform="translate(25.000000, 27.040000)">
                    <mask id="mask-2" fill="white">
                        <use xlink:href="#path-1"></use>
                    </mask>
                    <g id="Clip-7"></g>
                    <polygon id="Fill-6" fill="#FEFEFE" mask="url(#mask-2)" points="-526 902.781 1121.418 902.781 1121.418 -238.045 -526 -238.045"></polygon>
                    <polygon id="Fill-8" fill="#FEFEFE" mask="url(#mask-2)" points="-4.292 28.234 124.737 28.234 124.737 -4.888 -4.292 -4.888"></polygon>
                </g>
                <g id="Group-14" transform="translate(170.000000, 0.040000)">
                    <path d="M170.2241,0.0562 L99.3431,0.0562 L66.2361,0.0562 L17.7121,0.0562 C7.3381,10.4752 0.9221,24.8442 0.9221,40.7062 C0.9221,54.5972 5.8401,67.3392 14.0261,77.2802 L66.2361,77.2802 L103.0311,77.2802 L170.2241,77.2802 C171.9301,77.2802 173.3131,75.8932 173.3131,74.1882 L173.3131,3.1502 C173.3131,1.4412 171.9301,0.0562 170.2241,0.0562" id="Fill-10" fill="#534D64"></path>
                    <path d="M55.9614,48.4502 C56.1824,48.4502 56.4044,48.4882 56.6284,48.5732 C56.8514,48.6532 57.0644,48.8002 57.2684,49.0032 L60.9914,52.9222 C59.3624,55.0542 57.3194,56.6632 54.8624,57.7462 C52.4064,58.8302 49.5024,59.3712 46.1484,59.3712 C43.0714,59.3712 40.3134,58.8452 37.8754,57.8002 C35.4384,56.7562 33.3714,55.3102 31.6774,53.4672 C29.9804,51.6192 28.6794,49.4332 27.7714,46.9022 C26.8624,44.3742 26.4084,41.6242 26.4084,38.6582 C26.4084,35.6352 26.9004,32.8602 27.8824,30.3312 C28.8654,27.8042 30.2464,25.6232 32.0234,23.7912 C33.8044,21.9502 35.9364,20.5252 38.4194,19.5042 C40.9024,18.4852 43.6364,17.9742 46.6204,17.9742 C48.1404,17.9742 49.5704,18.1092 50.9174,18.3782 C52.2584,18.6472 53.5144,19.0192 54.6804,19.4922 C55.8504,19.9652 56.9244,20.5332 57.9074,21.2012 C58.8894,21.8662 59.7594,22.5922 60.5194,23.3722 L57.3524,27.6242 C57.1474,27.8862 56.9044,28.1202 56.6284,28.3352 C56.3514,28.5472 55.9614,28.6542 55.4624,28.6542 C55.1264,28.6542 54.8114,28.5772 54.5154,28.4282 C54.2194,28.2852 53.9024,28.1042 53.5694,27.8892 C53.2354,27.6792 52.8714,27.4482 52.4734,27.1942 C52.0734,26.9442 51.6014,26.7142 51.0544,26.5032 C50.5064,26.2882 49.8664,26.1072 49.1374,25.9572 C48.4034,25.8112 47.5464,25.7342 46.5634,25.7342 C45.0054,25.7342 43.5844,26.0222 42.2974,26.5982 C41.0104,27.1712 39.8984,28.0092 38.9614,29.1112 C38.0234,30.2122 37.3034,31.5632 36.7924,33.1662 C36.2854,34.7702 36.0274,36.6022 36.0274,38.6582 C36.0274,40.7362 36.3104,42.5842 36.8774,44.1972 C37.4414,45.8072 38.2124,47.1632 39.1844,48.2652 C40.1554,49.3682 41.2904,50.2062 42.5894,50.7822 C43.8864,51.3542 45.2764,51.6422 46.7594,51.6422 C47.6114,51.6422 48.3904,51.6042 49.0954,51.5152 C49.7984,51.4342 50.4564,51.2972 51.0674,51.1002 C51.6804,50.9052 52.2544,50.6472 52.7904,50.3212 C53.3304,49.9982 53.8754,49.5872 54.4314,49.0882 C54.6554,48.8992 54.8964,48.7502 55.1544,48.6272 C55.4164,48.5082 55.6834,48.4502 55.9614,48.4502 L55.9614,48.4502 Z M78.2844,37.4642 C79.5644,37.4642 80.6524,37.3022 81.5494,36.9752 C82.4504,36.6532 83.1884,36.2032 83.7604,35.6272 C84.3344,35.0512 84.7514,34.3832 85.0134,33.6112 C85.2724,32.8432 85.4024,32.0152 85.4024,31.1242 C85.4024,29.3492 84.8224,27.9592 83.6644,26.9602 C82.5064,25.9572 80.7124,25.4582 78.2844,25.4582 L74.5044,25.4582 L74.5044,37.4642 L78.2844,37.4642 Z M98.2444,58.9262 L89.7374,58.9262 C88.1624,58.9262 87.0314,58.3342 86.3484,57.1512 L79.6194,45.3882 C79.3044,44.8882 78.9504,44.5242 78.5634,44.2902 C78.1754,44.0592 77.6174,43.9442 76.8964,43.9442 L74.5044,43.9442 L74.5044,58.9262 L65.1064,58.9262 L65.1064,18.4202 L78.2844,18.4202 C81.2134,18.4202 83.7104,18.7202 85.7764,19.3232 C87.8444,19.9262 89.5304,20.7632 90.8364,21.8392 C92.1424,22.9192 93.0914,24.1862 93.6874,25.6542 C94.2784,27.1172 94.5754,28.7082 94.5754,30.4292 C94.5754,31.7442 94.3994,32.9872 94.0484,34.1522 C93.6944,35.3242 93.1764,36.4032 92.4914,37.3942 C91.8044,38.3862 90.9574,39.2722 89.9464,40.0492 C88.9394,40.8292 87.7744,41.4672 86.4574,41.9732 C87.0674,42.2842 87.6444,42.6802 88.1804,43.1522 C88.7204,43.6252 89.1994,44.1862 89.6264,44.8312 L98.2444,58.9262 Z M147.2004,18.4202 L147.2004,58.9262 L138.9144,58.9262 L138.9144,35.6272 C138.9144,35.0902 138.9304,34.5062 138.9584,33.8762 C138.9874,33.2442 139.0374,32.6082 139.1104,31.9602 L128.3524,52.7832 C128.0204,53.4322 127.5704,53.9242 127.0044,54.2592 C126.4394,54.5932 125.7934,54.7582 125.0734,54.7582 L123.7924,54.7582 C123.0694,54.7582 122.4254,54.5932 121.8614,54.2592 C121.2954,53.9242 120.8464,53.4322 120.5144,52.7832 L109.7534,31.9022 C109.8094,32.5682 109.8574,33.2232 109.8944,33.8642 C109.9284,34.5022 109.9494,35.0902 109.9494,35.6272 L109.9494,58.9262 L101.6634,58.9262 L101.6634,18.4202 L108.8354,18.4202 C109.2444,18.4202 109.6024,18.4282 109.9094,18.4512 C110.2124,18.4672 110.4874,18.5202 110.7284,18.6122 C110.9694,18.7082 111.1874,18.8502 111.3804,19.0472 C111.5744,19.2382 111.7674,19.5122 111.9504,19.8682 L122.3764,40.4102 C122.7454,41.1172 123.1034,41.8462 123.4444,42.6112 C123.7884,43.3682 124.1184,44.1472 124.4344,44.9422 C124.7484,44.1292 125.0754,43.3332 125.4194,42.5542 C125.7634,41.7732 126.1284,41.0322 126.5204,40.3292 L136.9144,19.8682 C137.1014,19.5122 137.2914,19.2382 137.4854,19.0472 C137.6794,18.8502 137.8974,18.7082 138.1384,18.6122 C138.3804,18.5202 138.6504,18.4672 138.9584,18.4512 C139.2644,18.4282 139.6194,18.4202 140.0284,18.4202 L147.2004,18.4202 Z" id="Fill-12" fill="#FEFEFE"></path>
                </g>
                <g id="Group-18" transform="translate(196.000000, 17.040000)">
                    <mask id="mask-4" fill="white">
                        <use xlink:href="#path-3"></use>
                    </mask>
                    <g id="Clip-16"></g>
                    <polygon id="Fill-15" fill="#FEFEFE" mask="url(#mask-4)" points="-696.998 913 950.422 913 950.422 -227.828 -696.998 -227.828"></polygon>
                    <polygon id="Fill-17" fill="#FEFEFE" mask="url(#mask-4)" points="-4.741 47.518 126.35 47.518 126.35 -4.173 -4.741 -4.173"></polygon>
                </g>
            </g>
        </g>
    </g>
</svg>